<?xml version="1.0" standalone="no"?><!DOCTYPE svg PUBLIC "-//W3C//DTD SVG 1.1//EN" "http://www.w3.org/Graphics/SVG/1.1/DTD/svg11.dtd"><svg t="1617643457929" class="icon" viewBox="0 0 1024 1024" version="1.1" xmlns="http://www.w3.org/2000/svg" p-id="10880" xmlns:xlink="http://www.w3.org/1999/xlink" width="32" height="32"><defs><style type="text/css"></style></defs><path d="M327.567 451.597V343.272h397.854c42.136 0 78.704 23.823 96.986 58.732 13.734-19.462 21.807-43.206 21.807-68.838 0-66.012-53.512-119.526-119.526-119.526h-397.12V104.886c0-16.012-18.056-25.367-31.136-16.133L50.85 262.108c-11.146 7.868-11.146 24.398 0 32.266L296.432 467.73c13.081 9.233 31.135-0.123 31.135-16.133zM972.16 729.645L726.577 556.29c-13.08-9.235-31.135 0.12-31.135 16.132V680.75H297.59c-42.138 0-78.706-23.823-96.987-58.732-13.735 19.462-21.807 43.206-21.807 68.836 0 66.014 53.513 119.527 119.525 119.527h397.121v108.754c0 16.011 18.056 25.366 31.135 16.132L972.16 761.912c11.145-7.87 11.145-24.4 0-32.267z" p-id="10881"></path></svg>